<svg xmlns="http://www.w3.org/2000/svg" xmlns:xlink="http://www.w3.org/1999/xlink" width="938" zoomAndPan="magnify" viewBox="0 0 703.5 657.000002" height="876" preserveAspectRatio="xMidYMid meet" version="1.0"><defs><g/><clipPath id="6a0f56759e"><path d="M 38 343.167969 L 249 343.167969 L 249 477 L 38 477 Z M 38 343.167969 " clip-rule="nonzero"/></clipPath><clipPath id="405801df63"><path d="M 455 343.167969 L 665.746094 343.167969 L 665.746094 477 L 455 477 Z M 455 343.167969 " clip-rule="nonzero"/></clipPath><clipPath id="74403aa320"><path d="M 38 436 L 665.746094 436 L 665.746094 618.191406 L 38 618.191406 Z M 38 436 " clip-rule="nonzero"/></clipPath><clipPath id="ce76d8b6af"><path d="M 350 343.167969 L 665.746094 343.167969 L 665.746094 618.191406 L 350 618.191406 Z M 350 343.167969 " clip-rule="nonzero"/></clipPath><clipPath id="24f002ac25"><path d="M 462 343.167969 L 665.746094 343.167969 L 665.746094 437 L 462 437 Z M 462 343.167969 " clip-rule="nonzero"/></clipPath><clipPath id="f9f5d1c3d4"><path d="M 350 436 L 665.746094 436 L 665.746094 618.191406 L 350 618.191406 Z M 350 436 " clip-rule="nonzero"/></clipPath></defs><g clip-path="url(#6a0f56759e)"><path fill="#b7afac" d="M 38.375 436.300781 L 222.578125 343.171875 L 248.089844 474.910156 C 248.089844 474.910156 207.425781 488.039062 204.230469 429.140625 C 201.046875 370.242188 134.863281 445.0625 113.332031 465.757812 C 91.800781 486.453125 38.375 436.300781 38.375 436.300781 " fill-opacity="1" fill-rule="nonzero"/></g><g clip-path="url(#405801df63)"><path fill="#b7afac" d="M 665.128906 436.300781 L 480.941406 343.175781 L 455.433594 474.910156 C 455.433594 474.910156 496.097656 488.039062 499.277344 429.140625 C 502.472656 370.242188 568.65625 445.066406 590.1875 465.757812 C 611.707031 486.453125 665.128906 436.300781 665.128906 436.300781 " fill-opacity="1" fill-rule="nonzero"/></g><g clip-path="url(#74403aa320)"><path fill="#ccc9c8" d="M 351.753906 436.300781 L 38.375 436.300781 L 38.375 579.585938 L 60.578125 579.585938 L 62.835938 591.582031 C 65.605469 606.222656 80.082031 618.195312 94.996094 618.195312 L 283.269531 618.195312 C 298.191406 618.195312 312.65625 606.222656 315.421875 591.582031 C 315.421875 591.582031 316.703125 582.480469 317.683594 579.585938 C 329.148438 545.753906 351.753906 548.734375 351.753906 548.734375 C 351.753906 548.734375 374.371094 545.753906 385.835938 579.585938 C 386.804688 582.480469 388.097656 591.582031 388.097656 591.582031 C 390.863281 606.222656 405.328125 618.195312 420.253906 618.195312 L 608.523438 618.195312 C 623.4375 618.195312 637.910156 606.222656 640.671875 591.582031 L 642.941406 579.585938 L 665.128906 579.585938 L 665.128906 436.300781 L 351.753906 436.300781 " fill-opacity="1" fill-rule="nonzero"/></g><path fill="#3b96af" d="M 295.738281 585.34375 C 295.738281 592.828125 289.667969 598.886719 282.171875 598.886719 L 102.964844 598.886719 C 95.46875 598.886719 89.402344 592.828125 89.402344 585.34375 L 89.402344 469.148438 C 89.402344 461.664062 95.46875 455.609375 102.964844 455.609375 L 282.171875 455.609375 C 289.667969 455.609375 295.738281 461.664062 295.738281 469.148438 L 295.738281 585.34375 " fill-opacity="1" fill-rule="nonzero"/><path fill="#f36452" d="M 407.785156 585.34375 C 407.785156 592.828125 413.851562 598.882812 421.347656 598.882812 L 600.558594 598.882812 C 608.039062 598.882812 614.121094 592.828125 614.121094 585.34375 L 614.121094 469.148438 C 614.121094 461.664062 608.039062 455.609375 600.558594 455.609375 L 421.347656 455.609375 C 413.851562 455.609375 407.785156 461.664062 407.785156 469.148438 L 407.785156 585.34375 " fill-opacity="1" fill-rule="nonzero"/><g clip-path="url(#ce76d8b6af)"><path fill="#e3dfdd" d="M 608.523438 618.195312 L 420.253906 618.195312 C 405.328125 618.195312 390.863281 606.222656 388.097656 591.582031 C 388.097656 591.582031 386.804688 582.480469 385.835938 579.585938 C 376.085938 550.824219 358.285156 548.671875 353.164062 548.671875 C 352.261719 548.671875 351.753906 548.734375 351.753906 548.734375 C 351.753906 548.734375 351.222656 548.679688 350.339844 548.679688 C 350.253906 548.679688 350.167969 548.679688 350.082031 548.679688 L 350.082031 548.671875 C 350.171875 548.671875 350.261719 548.671875 350.34375 548.671875 C 351.246094 548.671875 351.753906 548.734375 351.753906 548.734375 C 351.753906 548.734375 352.261719 548.671875 353.164062 548.671875 C 358.285156 548.671875 376.085938 550.824219 385.835938 579.585938 C 386.804688 582.480469 388.097656 591.582031 388.097656 591.582031 C 390.863281 606.222656 405.328125 618.195312 420.253906 618.195312 L 608.523438 618.195312 C 623.4375 618.195312 637.910156 606.222656 640.671875 591.582031 L 642.941406 579.585938 L 665.128906 579.585938 L 665.128906 436.300781 L 665.128906 579.585938 L 642.941406 579.585938 L 640.671875 591.582031 C 637.910156 606.222656 623.4375 618.195312 608.523438 618.195312 M 462.90625 436.300781 L 462.902344 436.300781 L 480.941406 343.175781 L 462.90625 436.300781 M 499.277344 429.140625 C 499.6875 421.636719 501.117188 416.304688 503.347656 412.757812 C 501.117188 416.304688 499.6875 421.640625 499.277344 429.140625 " fill-opacity="1" fill-rule="nonzero"/></g><g clip-path="url(#24f002ac25)"><path fill="#a39996" d="M 665.128906 436.300781 L 560.28125 436.300781 C 544.09375 421.253906 526.003906 406.976562 513.730469 406.976562 C 509.453125 406.976562 505.878906 408.714844 503.347656 412.757812 C 501.117188 416.304688 499.6875 421.636719 499.277344 429.140625 C 499.140625 431.671875 498.921875 434.03125 498.644531 436.300781 L 462.90625 436.300781 L 480.941406 343.175781 L 665.128906 436.300781 " fill-opacity="1" fill-rule="nonzero"/></g><g clip-path="url(#f9f5d1c3d4)"><path fill="#b6b1af" d="M 608.523438 618.195312 L 420.253906 618.195312 C 405.328125 618.195312 390.863281 606.222656 388.097656 591.582031 C 388.097656 591.582031 386.804688 582.480469 385.835938 579.585938 C 376.085938 550.824219 358.285156 548.671875 353.164062 548.671875 C 352.261719 548.671875 351.753906 548.734375 351.753906 548.734375 C 351.753906 548.734375 351.246094 548.671875 350.34375 548.671875 C 350.261719 548.671875 350.171875 548.671875 350.082031 548.671875 L 350.082031 436.300781 L 665.128906 436.300781 L 665.128906 579.585938 L 642.941406 579.585938 L 640.671875 591.582031 C 637.910156 606.222656 623.4375 618.195312 608.523438 618.195312 M 421.347656 455.609375 C 413.851562 455.609375 407.785156 461.664062 407.785156 469.148438 L 407.785156 585.34375 C 407.785156 592.828125 413.851562 598.886719 421.347656 598.886719 L 600.558594 598.886719 C 608.039062 598.886719 614.121094 592.828125 614.121094 585.34375 L 614.121094 469.148438 C 614.121094 461.664062 608.039062 455.609375 600.558594 455.609375 L 421.347656 455.609375 " fill-opacity="1" fill-rule="nonzero"/></g><path fill="#db5b4b" d="M 600.558594 598.882812 L 421.347656 598.882812 C 413.851562 598.882812 407.785156 592.828125 407.785156 585.34375 L 407.785156 469.148438 C 407.785156 461.664062 413.851562 455.609375 421.347656 455.609375 L 600.558594 455.609375 C 608.039062 455.609375 614.121094 461.664062 614.121094 469.148438 L 614.121094 585.34375 C 614.121094 592.828125 608.039062 598.882812 600.558594 598.882812 " fill-opacity="1" fill-rule="nonzero"/><g fill="#3a97af" fill-opacity="1"><g transform="translate(77.211562, 412.307752)"><g><path d="M 143.269531 2.71875 C 170.445312 2.71875 216.648438 -3.496094 238.390625 -13.199219 C 242.273438 -15.53125 245.769531 -20.191406 245.378906 -26.011719 C 244.605469 -46.980469 243.828125 -67.945312 242.664062 -88.910156 C 241.886719 -99.78125 230.625 -101.722656 226.355469 -92.40625 C 211.214844 -62.121094 180.929688 -47.367188 143.269531 -47.367188 C 102.113281 -47.367188 67.558594 -68.722656 67.558594 -128.125 C 67.558594 -191.023438 99.78125 -225.578125 140.550781 -225.578125 C 179.765625 -225.578125 201.117188 -208.109375 215.097656 -182.871094 C 218.980469 -174.71875 229.074219 -176.269531 229.851562 -184.421875 C 230.625 -192.578125 233.34375 -234.898438 233.734375 -241.886719 C 234.121094 -247.320312 232.566406 -251.980469 228.296875 -254.699219 C 206.167969 -265.570312 172.777344 -274.886719 141.328125 -274.886719 C 62.898438 -274.886719 7.765625 -217.425781 7.765625 -125.796875 C 7.765625 -34.945312 64.453125 2.71875 143.269531 2.71875 Z M 143.269531 2.71875 "/></g></g></g><g fill="#db5a4a" fill-opacity="1"><g transform="translate(331.513179, 412.307752)"><g><path d="M 130.066406 3.105469 C 202.285156 3.105469 246.546875 -25.238281 246.546875 -72.992188 C 246.546875 -159.964844 76.097656 -150.644531 76.097656 -199.175781 C 76.097656 -217.8125 104.054688 -225.96875 132.785156 -225.96875 C 160.738281 -225.96875 189.472656 -215.484375 211.214844 -196.070312 C 217.039062 -189.082031 225.96875 -193.355469 225.96875 -203.449219 L 225.96875 -246.933594 C 225.96875 -251.59375 223.25 -255.863281 218.980469 -258.191406 C 194.128906 -269.0625 159.574219 -274.886719 130.066406 -274.886719 C 65.617188 -274.886719 15.53125 -251.59375 15.53125 -203.058594 C 15.53125 -113.371094 184.421875 -129.289062 184.421875 -76.097656 C 184.421875 -56.296875 162.292969 -46.203125 128.125 -46.203125 C 88.136719 -46.203125 50.085938 -57.851562 24.070312 -85.804688 C 18.25 -92.792969 8.929688 -90.078125 8.929688 -79.203125 C 8.542969 -62.121094 8.152344 -45.425781 8.152344 -28.34375 C 8.152344 -22.519531 10.484375 -18.25 14.753906 -16.695312 C 46.203125 -5.4375 96.289062 3.105469 130.066406 3.105469 Z M 130.066406 3.105469 "/></g></g></g></svg>