<svg xmlns="http://www.w3.org/2000/svg" xmlns:xlink="http://www.w3.org/1999/xlink" width="3257" zoomAndPan="magnify" viewBox="0 0 2442.75 1064.250012" height="1419" preserveAspectRatio="xMidYMid meet" version="1.0"><defs><g/><clipPath id="2063d2cb8b"><path d="M 720 38.171875 L 1056 38.171875 L 1056 252 L 720 252 Z M 720 38.171875 " clip-rule="nonzero"/></clipPath><clipPath id="39a88602fe"><path d="M 1386 38.171875 L 1722 38.171875 L 1722 252 L 1386 252 Z M 1386 38.171875 " clip-rule="nonzero"/></clipPath><clipPath id="1754b9649a"><path d="M 720 187 L 1722 187 L 1722 478.90625 L 720 478.90625 Z M 720 187 " clip-rule="nonzero"/></clipPath><clipPath id="d05707aafc"><path d="M 1218 38.171875 L 1722 38.171875 L 1722 478.90625 L 1218 478.90625 Z M 1218 38.171875 " clip-rule="nonzero"/></clipPath><clipPath id="5dd0da2648"><path d="M 1398 38.171875 L 1722 38.171875 L 1722 188 L 1398 188 Z M 1398 38.171875 " clip-rule="nonzero"/></clipPath><clipPath id="a68c426b94"><path d="M 1218 187 L 1722 187 L 1722 478.90625 L 1218 478.90625 Z M 1218 187 " clip-rule="nonzero"/></clipPath></defs><g clip-path="url(#2063d2cb8b)"><path fill="#b7afac" d="M 720.234375 187.421875 L 1014.632812 38.183594 L 1055.40625 249.292969 C 1055.40625 249.292969 990.414062 270.332031 985.304688 175.945312 C 980.21875 81.5625 874.445312 201.460938 840.03125 234.625 C 805.621094 267.792969 720.234375 187.421875 720.234375 187.421875 " fill-opacity="1" fill-rule="nonzero"/></g><g clip-path="url(#39a88602fe)"><path fill="#b7afac" d="M 1721.921875 187.421875 L 1427.550781 38.1875 L 1386.78125 249.292969 C 1386.78125 249.292969 1451.773438 270.332031 1456.855469 175.949219 C 1461.964844 81.5625 1567.738281 201.464844 1602.152344 234.625 C 1636.542969 267.792969 1721.921875 187.421875 1721.921875 187.421875 " fill-opacity="1" fill-rule="nonzero"/></g><g clip-path="url(#1754b9649a)"><path fill="#ccc9c8" d="M 1221.078125 187.421875 L 720.234375 187.421875 L 720.234375 417.039062 L 755.71875 417.039062 L 759.332031 436.257812 C 763.757812 459.722656 786.890625 478.90625 810.726562 478.90625 L 1111.625 478.90625 C 1135.480469 478.90625 1158.59375 459.722656 1163.019531 436.257812 C 1163.019531 436.257812 1165.0625 421.675781 1166.632812 417.039062 C 1184.953125 362.820312 1221.078125 367.601562 1221.078125 367.601562 C 1221.078125 367.601562 1257.226562 362.820312 1275.550781 417.039062 C 1277.097656 421.675781 1279.167969 436.257812 1279.167969 436.257812 C 1283.582031 459.722656 1306.703125 478.90625 1330.558594 478.90625 L 1631.457031 478.90625 C 1655.292969 478.90625 1678.417969 459.722656 1682.832031 436.257812 L 1686.457031 417.039062 L 1721.921875 417.039062 L 1721.921875 187.421875 L 1221.078125 187.421875 " fill-opacity="1" fill-rule="nonzero"/></g><path fill="#3b96af" d="M 1131.554688 426.265625 C 1131.554688 438.257812 1121.855469 447.964844 1109.878906 447.964844 L 823.460938 447.964844 C 811.480469 447.964844 801.785156 438.257812 801.785156 426.265625 L 801.785156 240.058594 C 801.785156 228.066406 811.480469 218.363281 823.460938 218.363281 L 1109.878906 218.363281 C 1121.855469 218.363281 1131.554688 228.066406 1131.554688 240.058594 L 1131.554688 426.265625 " fill-opacity="1" fill-rule="nonzero"/><path fill="#f36452" d="M 1310.632812 426.261719 C 1310.632812 438.257812 1320.328125 447.964844 1332.308594 447.964844 L 1618.726562 447.964844 C 1630.683594 447.964844 1640.398438 438.257812 1640.398438 426.261719 L 1640.398438 240.058594 C 1640.398438 228.066406 1630.683594 218.363281 1618.726562 218.363281 L 1332.308594 218.363281 C 1320.328125 218.363281 1310.632812 228.066406 1310.632812 240.058594 L 1310.632812 426.261719 " fill-opacity="1" fill-rule="nonzero"/><g clip-path="url(#d05707aafc)"><path fill="#e3dfdd" d="M 1631.457031 478.90625 L 1330.558594 478.90625 C 1306.703125 478.90625 1283.582031 459.722656 1279.167969 436.257812 C 1279.167969 436.257812 1277.097656 421.675781 1275.550781 417.039062 C 1259.96875 370.945312 1231.515625 367.496094 1223.335938 367.496094 C 1221.890625 367.496094 1221.078125 367.601562 1221.078125 367.601562 C 1221.078125 367.601562 1220.230469 367.507812 1218.820312 367.507812 C 1218.6875 367.507812 1218.546875 367.507812 1218.40625 367.507812 L 1218.40625 367.496094 C 1218.554688 367.496094 1218.695312 367.496094 1218.824219 367.496094 C 1220.265625 367.496094 1221.078125 367.601562 1221.078125 367.601562 C 1221.078125 367.601562 1221.890625 367.496094 1223.335938 367.496094 C 1231.515625 367.496094 1259.96875 370.945312 1275.550781 417.039062 C 1277.097656 421.675781 1279.167969 436.257812 1279.167969 436.257812 C 1283.582031 459.722656 1306.703125 478.90625 1330.558594 478.90625 L 1631.457031 478.90625 C 1655.292969 478.90625 1678.417969 459.722656 1682.832031 436.257812 L 1686.457031 417.039062 L 1721.921875 417.039062 L 1721.921875 187.421875 L 1721.921875 417.039062 L 1686.457031 417.039062 L 1682.832031 436.257812 C 1678.417969 459.722656 1655.292969 478.90625 1631.457031 478.90625 M 1398.726562 187.421875 L 1398.71875 187.421875 L 1427.550781 38.1875 L 1398.726562 187.421875 M 1456.855469 175.949219 C 1457.511719 163.921875 1459.796875 155.378906 1463.359375 149.691406 C 1459.796875 155.378906 1457.511719 163.929688 1456.855469 175.949219 " fill-opacity="1" fill-rule="nonzero"/></g><g clip-path="url(#5dd0da2648)"><path fill="#a39996" d="M 1721.921875 187.421875 L 1554.351562 187.421875 C 1528.484375 163.308594 1499.570312 140.429688 1479.953125 140.429688 C 1473.117188 140.429688 1467.40625 143.210938 1463.359375 149.691406 C 1459.796875 155.378906 1457.511719 163.921875 1456.855469 175.949219 C 1456.640625 180.003906 1456.289062 183.78125 1455.847656 187.421875 L 1398.726562 187.421875 L 1427.550781 38.1875 L 1721.921875 187.421875 " fill-opacity="1" fill-rule="nonzero"/></g><g clip-path="url(#a68c426b94)"><path fill="#b6b1af" d="M 1631.457031 478.90625 L 1330.558594 478.90625 C 1306.703125 478.90625 1283.582031 459.722656 1279.167969 436.257812 C 1279.167969 436.257812 1277.097656 421.675781 1275.550781 417.039062 C 1259.96875 370.945312 1231.515625 367.496094 1223.335938 367.496094 C 1221.890625 367.496094 1221.078125 367.601562 1221.078125 367.601562 C 1221.078125 367.601562 1220.265625 367.496094 1218.824219 367.496094 C 1218.695312 367.496094 1218.554688 367.496094 1218.40625 367.496094 L 1218.40625 187.421875 L 1721.921875 187.421875 L 1721.921875 417.039062 L 1686.457031 417.039062 L 1682.832031 436.257812 C 1678.417969 459.722656 1655.292969 478.90625 1631.457031 478.90625 M 1332.304688 218.363281 C 1320.324219 218.363281 1310.632812 228.066406 1310.632812 240.058594 L 1310.632812 426.265625 C 1310.632812 438.261719 1320.324219 447.964844 1332.304688 447.964844 L 1618.722656 447.964844 C 1630.675781 447.964844 1640.398438 438.261719 1640.398438 426.265625 L 1640.398438 240.058594 C 1640.398438 228.066406 1630.675781 218.363281 1618.722656 218.363281 L 1332.304688 218.363281 " fill-opacity="1" fill-rule="nonzero"/></g><path fill="#db5b4b" d="M 1618.726562 447.964844 L 1332.308594 447.964844 C 1320.328125 447.964844 1310.632812 438.257812 1310.632812 426.261719 L 1310.632812 240.058594 C 1310.632812 228.066406 1320.328125 218.363281 1332.308594 218.363281 L 1618.726562 218.363281 C 1630.683594 218.363281 1640.398438 228.066406 1640.398438 240.058594 L 1640.398438 426.261719 C 1640.398438 438.257812 1630.683594 447.964844 1618.726562 447.964844 " fill-opacity="1" fill-rule="nonzero"/><g fill="#3a97af" fill-opacity="1"><g transform="translate(38.466838, 934.828979)"><g><path d="M 143.296875 2.71875 C 170.480469 2.71875 216.695312 -3.496094 238.441406 -13.203125 C 242.324219 -15.535156 245.820312 -20.195312 245.429688 -26.019531 C 244.65625 -46.988281 243.878906 -67.960938 242.714844 -88.929688 C 241.9375 -99.804688 230.675781 -101.746094 226.402344 -92.425781 C 211.257812 -62.132812 180.96875 -47.378906 143.296875 -47.378906 C 102.132812 -47.378906 67.570312 -68.738281 67.570312 -128.152344 C 67.570312 -191.0625 99.804688 -225.625 140.578125 -225.625 C 179.800781 -225.625 201.160156 -208.152344 215.140625 -182.910156 C 219.023438 -174.753906 229.121094 -176.308594 229.898438 -184.460938 C 230.675781 -192.617188 233.394531 -234.945312 233.78125 -241.9375 C 234.167969 -247.375 232.617188 -252.035156 228.34375 -254.75 C 206.210938 -265.625 172.8125 -274.945312 141.355469 -274.945312 C 62.910156 -274.945312 7.765625 -217.472656 7.765625 -125.824219 C 7.765625 -34.949219 64.464844 2.71875 143.296875 2.71875 Z M 143.296875 2.71875 "/></g></g></g><g fill="#ffffff" fill-opacity="1"><g transform="translate(292.821431, 934.828979)"><g><path d="M 41.941406 -231.453125 C 61.359375 -231.453125 74.949219 -243.101562 74.949219 -259.023438 C 74.949219 -275.332031 61.359375 -286.984375 41.941406 -286.984375 C 22.914062 -286.984375 9.320312 -275.332031 9.320312 -259.023438 C 9.320312 -243.101562 22.914062 -231.453125 41.941406 -231.453125 Z M 42.71875 1.554688 C 46.988281 1.554688 57.085938 1.164062 63.6875 0 C 68.347656 -1.164062 72.230469 -4.660156 72.230469 -10.875 C 72.230469 -100.96875 71.84375 -143.6875 67.960938 -201.550781 C 67.570312 -208.152344 64.851562 -210.09375 59.804688 -211.257812 C 54.757812 -212.421875 46.601562 -212.8125 43.105469 -212.8125 C 38.835938 -212.8125 29.902344 -212.421875 24.464844 -211.257812 C 19.417969 -210.480469 16.699219 -208.152344 16.308594 -201.550781 C 12.425781 -143.6875 12.039062 -100.96875 12.039062 -11.261719 C 12.039062 -5.046875 15.921875 -1.164062 20.582031 0 C 27.183594 1.554688 38.445312 1.554688 42.71875 1.554688 Z M 42.71875 1.554688 "/></g></g></g><g fill="#ffffff" fill-opacity="1"><g transform="translate(377.091251, 934.828979)"><g><path d="M 40.777344 1.554688 C 46.988281 1.554688 57.863281 1.164062 63.6875 0 C 68.738281 -0.777344 73.394531 -4.660156 72.621094 -10.875 C 69.125 -40 68.347656 -73.785156 67.960938 -96.308594 C 67.960938 -138.25 89.320312 -165.046875 119.609375 -165.046875 C 151.066406 -165.046875 170.871094 -138.636719 171.648438 -97.085938 C 172.035156 -76.503906 170.871094 -38.058594 168.152344 -10.875 C 167.761719 -4.660156 172.421875 -1.164062 177.472656 0 C 184.851562 1.164062 196.113281 1.554688 200.773438 1.554688 C 205.042969 1.554688 214.753906 1.164062 220.964844 0 C 226.402344 -1.164062 230.285156 -4.273438 230.285156 -11.261719 C 230.285156 -56.699219 229.121094 -81.550781 227.566406 -111.453125 C 224.847656 -175.140625 190.675781 -214.363281 143.6875 -214.363281 C 116.503906 -214.363281 96.695312 -204.265625 78.445312 -179.414062 C 73.785156 -172.035156 69.902344 -172.8125 70.289062 -181.742188 C 70.679688 -186.792969 71.84375 -193.78125 74.171875 -200.773438 C 75.726562 -206.597656 71.453125 -210.480469 66.40625 -211.257812 C 59.027344 -212.421875 51.648438 -212.8125 44.660156 -212.8125 C 38.058594 -212.8125 30.679688 -212.421875 25.242188 -211.257812 C 20.195312 -210.480469 17.476562 -206.984375 16.699219 -201.160156 C 10.875 -143.296875 10.097656 -105.242188 10.097656 -11.261719 C 9.707031 -4.660156 13.980469 -0.777344 18.640625 0 C 24.855469 1.164062 33.785156 1.554688 40.777344 1.554688 Z M 40.777344 1.554688 "/></g></g></g><g fill="#ffffff" fill-opacity="1"><g transform="translate(616.308937, 934.828979)"><g><path d="M 119.996094 3.105469 C 147.179688 3.105469 180.578125 -2.71875 199.605469 -15.535156 C 202.714844 -17.476562 204.65625 -21.746094 204.65625 -26.019531 C 204.265625 -37.28125 203.878906 -49.707031 203.101562 -60.96875 C 202.714844 -71.453125 194.558594 -73.785156 188.734375 -66.792969 C 173.976562 -53.203125 148.734375 -43.496094 128.539062 -43.496094 C 101.746094 -43.496094 73.007812 -59.417969 63.6875 -81.164062 C 58.640625 -88.542969 63.300781 -94.367188 71.066406 -89.320312 C 86.210938 -81.164062 106.792969 -77.667969 128.152344 -77.667969 C 166.988281 -77.667969 201.9375 -103.296875 201.9375 -141.746094 C 201.9375 -189.121094 164.65625 -214.363281 109.902344 -214.363281 C 50.871094 -214.363281 6.988281 -175.917969 6.988281 -107.957031 C 6.988281 -36.890625 51.648438 3.105469 119.996094 3.105469 Z M 113.007812 -107.570312 C 92.8125 -107.570312 62.132812 -114.5625 62.132812 -130.484375 C 62.132812 -155.726562 86.988281 -170.871094 110.675781 -170.871094 C 137.859375 -170.871094 149.121094 -158.832031 149.121094 -138.636719 C 149.121094 -119.222656 135.144531 -107.570312 113.007812 -107.570312 Z M 113.007812 -107.570312 "/></g></g></g><g fill="#db5a4a" fill-opacity="1"><g transform="translate(828.33869, 934.828979)"><g><path d="M 130.09375 3.105469 C 202.324219 3.105469 246.597656 -25.242188 246.597656 -73.007812 C 246.597656 -159.996094 76.113281 -150.675781 76.113281 -199.21875 C 76.113281 -217.859375 104.074219 -226.015625 132.8125 -226.015625 C 160.773438 -226.015625 189.511719 -215.527344 211.257812 -196.113281 C 217.082031 -189.121094 226.015625 -193.394531 226.015625 -203.492188 L 226.015625 -246.984375 C 226.015625 -251.644531 223.296875 -255.917969 219.023438 -258.246094 C 194.171875 -269.121094 159.609375 -274.945312 130.09375 -274.945312 C 65.628906 -274.945312 15.535156 -251.644531 15.535156 -203.101562 C 15.535156 -113.394531 184.460938 -129.316406 184.460938 -76.113281 C 184.460938 -56.308594 162.328125 -46.210938 128.152344 -46.210938 C 88.152344 -46.210938 50.097656 -57.863281 24.078125 -85.824219 C 18.253906 -92.8125 8.933594 -90.09375 8.933594 -79.222656 C 8.542969 -62.132812 8.15625 -45.4375 8.15625 -28.347656 C 8.15625 -22.523438 10.484375 -18.253906 14.757812 -16.699219 C 46.210938 -5.4375 96.308594 3.105469 130.09375 3.105469 Z M 130.09375 3.105469 "/></g></g></g><g fill="#ffffff" fill-opacity="1"><g transform="translate(1082.693283, 934.828979)"><g><path d="M 95.53125 3.105469 C 123.878906 3.105469 144.851562 -7.378906 161.550781 -31.84375 C 165.820312 -39.222656 169.703125 -38.445312 169.703125 -29.902344 C 169.703125 -24.464844 169.703125 -17.476562 168.539062 -10.484375 C 167.375 -4.660156 171.648438 -0.777344 176.695312 0.386719 C 184.074219 1.164062 191.839844 1.941406 198.832031 1.941406 C 205.433594 1.941406 212.8125 1.554688 218.246094 0.386719 C 222.90625 -0.777344 226.015625 -4.273438 226.015625 -10.097656 C 226.402344 -71.84375 226.792969 -110.289062 220.578125 -200.382812 C 219.800781 -206.597656 215.917969 -210.871094 211.257812 -211.644531 C 204.65625 -212.421875 196.113281 -213.199219 189.121094 -213.199219 C 182.910156 -213.199219 172.035156 -212.421875 166.210938 -211.644531 C 161.550781 -210.480469 156.890625 -206.597656 158.054688 -200.382812 C 163.101562 -171.648438 165.433594 -137.859375 165.433594 -115.335938 C 165.433594 -73.394531 146.792969 -46.210938 118.832031 -46.210938 C 83.105469 -46.210938 67.960938 -71.066406 67.960938 -112.617188 C 67.960938 -135.144531 73.007812 -173.589844 76.890625 -200.773438 C 77.667969 -206.984375 73.394531 -210.480469 68.347656 -211.644531 C 60.96875 -212.8125 48.929688 -213.199219 43.882812 -213.199219 C 40 -213.199219 31.066406 -212.8125 24.855469 -211.644531 C 19.417969 -210.480469 15.921875 -206.984375 15.535156 -200.382812 C 11.648438 -158.832031 10.097656 -130.09375 10.097656 -100.582031 C 10.097656 -36.890625 36.503906 3.105469 95.53125 3.105469 Z M 95.53125 3.105469 "/></g></g></g><g fill="#ffffff" fill-opacity="1"><g transform="translate(1318.41587, 934.828979)"><g><path d="M 111.84375 92.425781 C 179.800781 92.425781 228.34375 63.6875 228.34375 -15.535156 C 228.34375 -91.261719 227.957031 -155.726562 222.90625 -201.550781 C 222.132812 -206.597656 219.023438 -210.09375 213.976562 -211.257812 C 208.925781 -212.421875 201.9375 -212.8125 194.558594 -212.8125 C 186.792969 -212.8125 177.859375 -212.421875 173.199219 -211.257812 C 168.152344 -210.09375 163.878906 -206.597656 164.65625 -201.160156 C 165.433594 -194.558594 166.988281 -186.792969 167.375 -180.96875 C 167.761719 -172.8125 163.492188 -172.035156 159.996094 -178.25 C 144.851562 -201.550781 120.773438 -214.363281 92.8125 -214.363281 C 44.269531 -214.363281 8.933594 -173.976562 8.933594 -105.242188 C 8.933594 -34.5625 44.660156 3.496094 92.8125 3.496094 C 121.164062 3.496094 145.238281 -6.214844 159.21875 -28.738281 C 163.492188 -36.890625 170.480469 -36.503906 170.480469 -26.796875 L 170.480469 -20.195312 C 170.480469 16.308594 138.25 40.386719 98.25 40.386719 C 74.171875 40.386719 46.210938 33.398438 28.347656 20.96875 C 22.914062 14.757812 14.757812 17.476562 13.59375 26.40625 L 10.097656 68.738281 C 9.320312 75.339844 12.816406 80 18.640625 82.328125 C 43.105469 90.09375 83.105469 92.425781 111.84375 92.425781 Z M 116.503906 -42.328125 C 86.210938 -42.328125 64.464844 -66.019531 64.464844 -106.015625 C 64.464844 -144.460938 85.824219 -167.761719 116.503906 -167.761719 C 146.792969 -167.375 168.539062 -144.460938 168.539062 -106.015625 C 168.539062 -66.019531 146.015625 -42.328125 116.503906 -42.328125 Z M 116.503906 -42.328125 "/></g></g></g><g fill="#ffffff" fill-opacity="1"><g transform="translate(1556.080221, 934.828979)"><g><path d="M 111.84375 92.425781 C 179.800781 92.425781 228.34375 63.6875 228.34375 -15.535156 C 228.34375 -91.261719 227.957031 -155.726562 222.90625 -201.550781 C 222.132812 -206.597656 219.023438 -210.09375 213.976562 -211.257812 C 208.925781 -212.421875 201.9375 -212.8125 194.558594 -212.8125 C 186.792969 -212.8125 177.859375 -212.421875 173.199219 -211.257812 C 168.152344 -210.09375 163.878906 -206.597656 164.65625 -201.160156 C 165.433594 -194.558594 166.988281 -186.792969 167.375 -180.96875 C 167.761719 -172.8125 163.492188 -172.035156 159.996094 -178.25 C 144.851562 -201.550781 120.773438 -214.363281 92.8125 -214.363281 C 44.269531 -214.363281 8.933594 -173.976562 8.933594 -105.242188 C 8.933594 -34.5625 44.660156 3.496094 92.8125 3.496094 C 121.164062 3.496094 145.238281 -6.214844 159.21875 -28.738281 C 163.492188 -36.890625 170.480469 -36.503906 170.480469 -26.796875 L 170.480469 -20.195312 C 170.480469 16.308594 138.25 40.386719 98.25 40.386719 C 74.171875 40.386719 46.210938 33.398438 28.347656 20.96875 C 22.914062 14.757812 14.757812 17.476562 13.59375 26.40625 L 10.097656 68.738281 C 9.320312 75.339844 12.816406 80 18.640625 82.328125 C 43.105469 90.09375 83.105469 92.425781 111.84375 92.425781 Z M 116.503906 -42.328125 C 86.210938 -42.328125 64.464844 -66.019531 64.464844 -106.015625 C 64.464844 -144.460938 85.824219 -167.761719 116.503906 -167.761719 C 146.792969 -167.375 168.539062 -144.460938 168.539062 -106.015625 C 168.539062 -66.019531 146.015625 -42.328125 116.503906 -42.328125 Z M 116.503906 -42.328125 "/></g></g></g><g fill="#ffffff" fill-opacity="1"><g transform="translate(1793.744595, 934.828979)"><g><path d="M 119.996094 3.105469 C 147.179688 3.105469 180.578125 -2.71875 199.605469 -15.535156 C 202.714844 -17.476562 204.65625 -21.746094 204.65625 -26.019531 C 204.265625 -37.28125 203.878906 -49.707031 203.101562 -60.96875 C 202.714844 -71.453125 194.558594 -73.785156 188.734375 -66.792969 C 173.976562 -53.203125 148.734375 -43.496094 128.539062 -43.496094 C 101.746094 -43.496094 73.007812 -59.417969 63.6875 -81.164062 C 58.640625 -88.542969 63.300781 -94.367188 71.066406 -89.320312 C 86.210938 -81.164062 106.792969 -77.667969 128.152344 -77.667969 C 166.988281 -77.667969 201.9375 -103.296875 201.9375 -141.746094 C 201.9375 -189.121094 164.65625 -214.363281 109.902344 -214.363281 C 50.871094 -214.363281 6.988281 -175.917969 6.988281 -107.957031 C 6.988281 -36.890625 51.648438 3.105469 119.996094 3.105469 Z M 113.007812 -107.570312 C 92.8125 -107.570312 62.132812 -114.5625 62.132812 -130.484375 C 62.132812 -155.726562 86.988281 -170.871094 110.675781 -170.871094 C 137.859375 -170.871094 149.121094 -158.832031 149.121094 -138.636719 C 149.121094 -119.222656 135.144531 -107.570312 113.007812 -107.570312 Z M 113.007812 -107.570312 "/></g></g></g><g fill="#ffffff" fill-opacity="1"><g transform="translate(2005.778429, 934.828979)"><g><path d="M 103.6875 2.71875 C 165.820312 2.71875 198.832031 -21.746094 198.832031 -59.027344 C 198.832031 -129.707031 70.679688 -119.996094 70.679688 -151.066406 C 70.679688 -163.101562 88.542969 -170.480469 110.675781 -170.480469 C 131.648438 -170.480469 154.558594 -163.101562 169.316406 -152.617188 C 175.140625 -147.179688 183.683594 -147.570312 183.683594 -160.773438 C 183.683594 -171.257812 183.683594 -181.742188 183.296875 -192.230469 C 183.296875 -198.054688 179.414062 -203.101562 173.199219 -205.433594 C 154.949219 -210.871094 126.210938 -213.976562 107.183594 -213.976562 C 52.425781 -213.976562 12.816406 -194.171875 12.816406 -156.113281 C 12.816406 -86.210938 140.96875 -98.25 140.96875 -64.078125 C 140.96875 -48.929688 126.988281 -43.105469 100.582031 -43.105469 C 74.5625 -43.105469 42.328125 -53.980469 24.464844 -69.125 C 19.417969 -75.339844 10.097656 -73.785156 9.320312 -62.523438 C 8.542969 -49.707031 8.15625 -37.28125 7.378906 -24.464844 C 6.988281 -17.476562 10.875 -13.203125 16.699219 -10.875 C 39.222656 -3.882812 76.503906 2.71875 103.6875 2.71875 Z M 103.6875 2.71875 "/></g></g></g><g fill="#ffffff" fill-opacity="1"><g transform="translate(2211.987252, 934.828979)"><g><path d="M 118.445312 3.105469 C 134.367188 3.105469 165.433594 0 179.800781 -6.601562 C 183.683594 -8.542969 186.402344 -12.425781 186.792969 -18.640625 C 186.792969 -29.125 187.179688 -38.058594 187.179688 -49.320312 C 187.570312 -60.191406 178.25 -64.464844 171.648438 -57.472656 C 164.65625 -52.425781 140.191406 -46.601562 131.257812 -46.601562 C 116.113281 -46.601562 104.851562 -54.367188 103.6875 -74.5625 C 102.910156 -97.085938 102.523438 -130.484375 104.851562 -157.667969 C 106.015625 -166.988281 111.453125 -172.035156 120.773438 -172.035156 C 131.648438 -172.421875 161.160156 -171.257812 171.648438 -170.09375 C 177.472656 -169.316406 182.132812 -174.753906 182.132812 -180.578125 L 182.132812 -201.550781 C 182.132812 -207.375 177.472656 -212.035156 171.648438 -212.035156 C 155.335938 -211.644531 131.257812 -211.257812 114.949219 -211.257812 C 111.066406 -211.257812 107.957031 -214.363281 107.957031 -219.023438 C 107.957031 -229.898438 109.511719 -238.828125 110.289062 -249.316406 C 111.066406 -255.527344 106.015625 -259.410156 100.96875 -260.1875 C 94.367188 -261.355469 88.152344 -261.742188 81.550781 -261.742188 C 75.339844 -261.742188 68.738281 -261.355469 62.132812 -260.1875 C 56.699219 -259.410156 53.203125 -255.527344 52.425781 -249.316406 C 51.261719 -239.21875 50.871094 -228.34375 50.871094 -218.636719 C 50.871094 -214.363281 48.152344 -211.257812 43.882812 -211.257812 L 15.144531 -211.257812 C 9.320312 -211.257812 4.660156 -206.597656 4.660156 -200.773438 L 4.660156 -182.519531 C 4.660156 -176.695312 9.320312 -171.648438 15.144531 -172.035156 C 24.464844 -172.421875 34.5625 -172.421875 43.882812 -172.421875 C 47.378906 -172.421875 51.261719 -169.316406 50.871094 -165.433594 C 47.765625 -133.589844 46.988281 -93.589844 46.988281 -66.40625 C 47.378906 -20.582031 78.445312 3.105469 118.445312 3.105469 Z M 118.445312 3.105469 "/></g></g></g></svg>